# xmcd
# 
# Track frame offsets:
#     183
#     44185
#     71070
#     112855
#     155063
#     218098
#     240605
#     280018
# 
# Disc length: 4053
# 
# Revision: 0
# Processed by: cddbd v1.5.2PL0 Copyright (c) Steve Scherf et al.
# Submitted via: BonkEnc v1.0.8
# 
DISCID=740fd308
DTITLE=Neil Young and Crazy Horse - Weld CD 2
DYEAR=1991
DGENRE=Blues
TTITLE0=Cortez The Killer
TTITLE1=Powderfinger
TTITLE2=Love And Only Love
TTITLE3=Rockin' In The Free World
TTITLE4=Like A Hurricane
TTITLE5=Farmer John
TTITLE6=Tonight's The Night
TTITLE7=Roll Another Number
EXTD=
EXTT0=
EXTT1=
EXTT2=
EXTT3=
EXTT4=
EXTT5=
EXTT6=
EXTT7=
PLAYORDER=
